<mxfile host="app.diagrams.net" modified="2023-08-10T00:32:54.435Z" agent="Mozilla/5.0 (Windows NT 10.0; Win64; x64) AppleWebKit/537.36 (KHTML, like Gecko) Chrome/114.0.0.0 Safari/537.36 Edg/114.0.1823.82" etag="Nu-S12Po7ErK4_QukD2e" version="21.6.7" type="github">
  <diagram name="Page-1" id="b520641d-4fe3-3701-9064-5fc419738815">
    <mxGraphModel dx="869" dy="871" grid="1" gridSize="10" guides="1" tooltips="1" connect="1" arrows="1" fold="1" page="1" pageScale="1" pageWidth="1100" pageHeight="850" background="none" math="0" shadow="0">
      <root>
        <mxCell id="0" />
        <mxCell id="1" parent="0" />
        <mxCell id="EnONNw2dZKeN9OESsjRf-1" value="" style="rounded=0;whiteSpace=wrap;html=1;" vertex="1" parent="1">
          <mxGeometry x="70" y="60" width="440" height="210" as="geometry" />
        </mxCell>
        <mxCell id="EnONNw2dZKeN9OESsjRf-2" value="" style="rounded=0;whiteSpace=wrap;html=1;" vertex="1" parent="1">
          <mxGeometry x="550" y="60" width="420" height="210" as="geometry" />
        </mxCell>
        <mxCell id="EnONNw2dZKeN9OESsjRf-3" value="-Código;&lt;br&gt;-Nome;&lt;br&gt;-Setor" style="shape=process;whiteSpace=wrap;html=1;backgroundOutline=1;" vertex="1" parent="1">
          <mxGeometry x="100" y="110" width="120" height="60" as="geometry" />
        </mxCell>
        <mxCell id="EnONNw2dZKeN9OESsjRf-4" value="-Código pessoa;&lt;br&gt;-Salário;&lt;br&gt;Data;&lt;br&gt;-Código do departamento." style="shape=process;whiteSpace=wrap;html=1;backgroundOutline=1;" vertex="1" parent="1">
          <mxGeometry x="580" y="105" width="120" height="100" as="geometry" />
        </mxCell>
        <mxCell id="EnONNw2dZKeN9OESsjRf-5" value="&lt;b&gt;&lt;font style=&quot;font-size: 18px;&quot;&gt;Departamento pessoal&lt;/font&gt;&lt;/b&gt;" style="text;strokeColor=none;align=center;fillColor=none;html=1;verticalAlign=middle;whiteSpace=wrap;rounded=0;" vertex="1" parent="1">
          <mxGeometry x="550" y="20" width="250" height="30" as="geometry" />
        </mxCell>
        <mxCell id="EnONNw2dZKeN9OESsjRf-6" value="&lt;span style=&quot;font-size: 18px;&quot;&gt;&lt;b&gt;Folha salarial&lt;br&gt;&lt;/b&gt;&lt;/span&gt;" style="text;strokeColor=none;align=center;fillColor=none;html=1;verticalAlign=middle;whiteSpace=wrap;rounded=0;" vertex="1" parent="1">
          <mxGeometry x="515" y="70" width="250" height="30" as="geometry" />
        </mxCell>
        <mxCell id="EnONNw2dZKeN9OESsjRf-7" value="&lt;span style=&quot;font-size: 18px;&quot;&gt;&lt;b&gt;Pessoa&lt;br&gt;&lt;/b&gt;&lt;/span&gt;" style="text;strokeColor=none;align=center;fillColor=none;html=1;verticalAlign=middle;whiteSpace=wrap;rounded=0;" vertex="1" parent="1">
          <mxGeometry x="300" y="70" width="250" height="30" as="geometry" />
        </mxCell>
        <mxCell id="EnONNw2dZKeN9OESsjRf-8" value="&lt;span style=&quot;font-size: 18px;&quot;&gt;&lt;b&gt;Serviços internos&lt;br&gt;&lt;/b&gt;&lt;/span&gt;" style="text;strokeColor=none;align=center;fillColor=none;html=1;verticalAlign=middle;whiteSpace=wrap;rounded=0;" vertex="1" parent="1">
          <mxGeometry x="40" y="30" width="250" height="30" as="geometry" />
        </mxCell>
        <mxCell id="EnONNw2dZKeN9OESsjRf-9" value="&lt;span style=&quot;font-size: 18px;&quot;&gt;&lt;b&gt;Departamento&lt;br&gt;&lt;/b&gt;&lt;/span&gt;" style="text;strokeColor=none;align=center;fillColor=none;html=1;verticalAlign=middle;whiteSpace=wrap;rounded=0;" vertex="1" parent="1">
          <mxGeometry x="35" y="70" width="250" height="30" as="geometry" />
        </mxCell>
        <mxCell id="EnONNw2dZKeN9OESsjRf-10" value="-Código;&lt;br&gt;-Nome;&lt;br&gt;-CPF;&lt;br&gt;-Endereço;&lt;br&gt;-Telefone;&lt;br&gt;-Idade" style="shape=process;whiteSpace=wrap;html=1;backgroundOutline=1;" vertex="1" parent="1">
          <mxGeometry x="360" y="100" width="120" height="110" as="geometry" />
        </mxCell>
        <mxCell id="EnONNw2dZKeN9OESsjRf-16" value="" style="endArrow=classic;html=1;rounded=0;entryX=0.5;entryY=1;entryDx=0;entryDy=0;" edge="1" parent="1" source="EnONNw2dZKeN9OESsjRf-3" target="EnONNw2dZKeN9OESsjRf-4">
          <mxGeometry width="50" height="50" relative="1" as="geometry">
            <mxPoint x="160" y="270" as="sourcePoint" />
            <mxPoint x="210" y="220" as="targetPoint" />
            <Array as="points">
              <mxPoint x="160" y="250" />
              <mxPoint x="640" y="250" />
            </Array>
          </mxGeometry>
        </mxCell>
        <mxCell id="EnONNw2dZKeN9OESsjRf-17" value="" style="endArrow=classic;html=1;rounded=0;exitX=1;exitY=0.5;exitDx=0;exitDy=0;entryX=0;entryY=0.5;entryDx=0;entryDy=0;" edge="1" parent="1" source="EnONNw2dZKeN9OESsjRf-10" target="EnONNw2dZKeN9OESsjRf-4">
          <mxGeometry width="50" height="50" relative="1" as="geometry">
            <mxPoint x="500" y="270" as="sourcePoint" />
            <mxPoint x="550" y="220" as="targetPoint" />
          </mxGeometry>
        </mxCell>
        <mxCell id="EnONNw2dZKeN9OESsjRf-18" style="edgeStyle=orthogonalEdgeStyle;rounded=0;orthogonalLoop=1;jettySize=auto;html=1;exitX=0.5;exitY=1;exitDx=0;exitDy=0;" edge="1" parent="1" source="EnONNw2dZKeN9OESsjRf-1" target="EnONNw2dZKeN9OESsjRf-1">
          <mxGeometry relative="1" as="geometry" />
        </mxCell>
        <mxCell id="EnONNw2dZKeN9OESsjRf-19" value="" style="rounded=0;whiteSpace=wrap;html=1;" vertex="1" parent="1">
          <mxGeometry x="70" y="330" width="450" height="440" as="geometry" />
        </mxCell>
        <mxCell id="EnONNw2dZKeN9OESsjRf-20" value="&lt;span style=&quot;font-size: 18px;&quot;&gt;&lt;b&gt;Atendimento ao cliente&lt;br&gt;&lt;/b&gt;&lt;/span&gt;" style="text;strokeColor=none;align=center;fillColor=none;html=1;verticalAlign=middle;whiteSpace=wrap;rounded=0;" vertex="1" parent="1">
          <mxGeometry x="50" y="300" width="250" height="30" as="geometry" />
        </mxCell>
        <mxCell id="EnONNw2dZKeN9OESsjRf-21" value="&lt;span style=&quot;font-size: 18px;&quot;&gt;&lt;b&gt;Tickets&lt;br&gt;&lt;/b&gt;&lt;/span&gt;" style="text;strokeColor=none;align=center;fillColor=none;html=1;verticalAlign=middle;whiteSpace=wrap;rounded=0;" vertex="1" parent="1">
          <mxGeometry x="50" y="340" width="250" height="30" as="geometry" />
        </mxCell>
        <mxCell id="EnONNw2dZKeN9OESsjRf-22" value="&lt;span style=&quot;font-size: 18px;&quot;&gt;&lt;b&gt;Atendentes&lt;br&gt;&lt;/b&gt;&lt;/span&gt;" style="text;strokeColor=none;align=center;fillColor=none;html=1;verticalAlign=middle;whiteSpace=wrap;rounded=0;" vertex="1" parent="1">
          <mxGeometry x="270" y="340" width="250" height="30" as="geometry" />
        </mxCell>
        <mxCell id="EnONNw2dZKeN9OESsjRf-23" value="-Código;&lt;br&gt;-Código atendente;&lt;br&gt;-Telefone;&lt;br&gt;-ID cliente" style="shape=process;whiteSpace=wrap;html=1;backgroundOutline=1;" vertex="1" parent="1">
          <mxGeometry x="115" y="383" width="120" height="85" as="geometry" />
        </mxCell>
        <mxCell id="EnONNw2dZKeN9OESsjRf-24" value="-ID pessoa;&lt;br&gt;-ID departamento" style="shape=process;whiteSpace=wrap;html=1;backgroundOutline=1;" vertex="1" parent="1">
          <mxGeometry x="335" y="383" width="120" height="57" as="geometry" />
        </mxCell>
        <mxCell id="EnONNw2dZKeN9OESsjRf-25" value="&lt;span style=&quot;font-size: 18px;&quot;&gt;&lt;b&gt;Registro de atendimento&lt;br&gt;&lt;/b&gt;&lt;/span&gt;" style="text;strokeColor=none;align=center;fillColor=none;html=1;verticalAlign=middle;whiteSpace=wrap;rounded=0;" vertex="1" parent="1">
          <mxGeometry x="80" y="520" width="250" height="30" as="geometry" />
        </mxCell>
        <mxCell id="EnONNw2dZKeN9OESsjRf-26" value="-ID ticket;&lt;br&gt;-Descricao" style="shape=process;whiteSpace=wrap;html=1;backgroundOutline=1;" vertex="1" parent="1">
          <mxGeometry x="115" y="560" width="120" height="60" as="geometry" />
        </mxCell>
        <mxCell id="EnONNw2dZKeN9OESsjRf-27" value="" style="endArrow=classic;html=1;rounded=0;exitX=0;exitY=0.5;exitDx=0;exitDy=0;entryX=1;entryY=0.5;entryDx=0;entryDy=0;" edge="1" parent="1" source="EnONNw2dZKeN9OESsjRf-24" target="EnONNw2dZKeN9OESsjRf-23">
          <mxGeometry width="50" height="50" relative="1" as="geometry">
            <mxPoint x="230" y="580" as="sourcePoint" />
            <mxPoint x="280" y="530" as="targetPoint" />
            <Array as="points">
              <mxPoint x="280" y="412" />
              <mxPoint x="280" y="430" />
            </Array>
          </mxGeometry>
        </mxCell>
        <mxCell id="EnONNw2dZKeN9OESsjRf-28" value="" style="endArrow=classic;html=1;rounded=0;entryX=0;entryY=0.5;entryDx=0;entryDy=0;exitX=0.016;exitY=0.439;exitDx=0;exitDy=0;exitPerimeter=0;" edge="1" parent="1" source="EnONNw2dZKeN9OESsjRf-23" target="EnONNw2dZKeN9OESsjRf-26">
          <mxGeometry width="50" height="50" relative="1" as="geometry">
            <mxPoint x="230" y="580" as="sourcePoint" />
            <mxPoint x="280" y="530" as="targetPoint" />
            <Array as="points">
              <mxPoint x="90" y="420" />
              <mxPoint x="90" y="570" />
              <mxPoint x="100" y="570" />
            </Array>
          </mxGeometry>
        </mxCell>
        <mxCell id="EnONNw2dZKeN9OESsjRf-29" value="" style="endArrow=classic;html=1;rounded=0;exitX=1;exitY=0.5;exitDx=0;exitDy=0;entryX=0;entryY=0.25;entryDx=0;entryDy=0;" edge="1" parent="1" source="EnONNw2dZKeN9OESsjRf-3" target="EnONNw2dZKeN9OESsjRf-24">
          <mxGeometry width="50" height="50" relative="1" as="geometry">
            <mxPoint x="230" y="340" as="sourcePoint" />
            <mxPoint x="280" y="290" as="targetPoint" />
            <Array as="points">
              <mxPoint x="300" y="370" />
              <mxPoint x="300" y="390" />
            </Array>
          </mxGeometry>
        </mxCell>
        <mxCell id="EnONNw2dZKeN9OESsjRf-30" value="" style="endArrow=classic;html=1;rounded=0;exitX=0.5;exitY=1;exitDx=0;exitDy=0;entryX=0.5;entryY=0;entryDx=0;entryDy=0;" edge="1" parent="1" source="EnONNw2dZKeN9OESsjRf-10" target="EnONNw2dZKeN9OESsjRf-24">
          <mxGeometry width="50" height="50" relative="1" as="geometry">
            <mxPoint x="230" y="340" as="sourcePoint" />
            <mxPoint x="280" y="290" as="targetPoint" />
            <Array as="points">
              <mxPoint x="470" y="290" />
              <mxPoint x="470" y="360" />
            </Array>
          </mxGeometry>
        </mxCell>
      </root>
    </mxGraphModel>
  </diagram>
</mxfile>
